<?xml version="1.0" standalone="no"?>
<!DOCTYPE svg PUBLIC "-//W3C//DTD SVG 20010904//EN"
 "http://www.w3.org/TR/2001/REC-SVG-20010904/DTD/svg10.dtd">
<svg version="1.0" xmlns="http://www.w3.org/2000/svg"
 width="512.000000pt" height="512.000000pt" viewBox="0 0 512.000000 512.000000"
 preserveAspectRatio="xMidYMid meet">
<metadata>
Created by potrace 1.11, written by Peter Selinger 2001-2013
</metadata>
<g transform="translate(0.000000,512.000000) scale(0.100000,-0.100000)"
fill="#000000" stroke="none">
<path d="M0 2560 l0 -2560 2560 0 2560 0 0 2560 0 2560 -2560 0 -2560 0 0
-2560z m2154 493 c232 -711 424 -1294 426 -1297 3 -2 181 579 395 1292 l390
1297 112 3 111 3 10 -48 c35 -161 712 -3514 712 -3523 0 -7 -71 -10 -232 -8
l-231 3 -208 1125 c-115 619 -210 1134 -212 1145 -1 11 -178 -508 -392 -1153
l-389 -1173 -64 3 -64 3 -395 1155 c-217 635 -397 1158 -401 1162 -4 4 -99
-506 -212 -1132 l-205 -1140 -232 0 c-128 0 -233 3 -233 7 0 11 661 3547 665
3561 4 9 32 12 116 10 l112 -3 421 -1292z"/>
</g>
</svg>
